<svg width="43" height="42" viewBox="0 0 43 42" fill="none" xmlns="http://www.w3.org/2000/svg">
<path d="M35.8259 6.18695H30.172C25.7711 6.18695 22.1906 9.68417 22.1906 13.9828V18.6435H17.7164C17.2529 18.6435 16.8766 19.0107 16.8766 19.4638V25.7751C16.8766 26.2282 17.2529 26.5954 17.7164 26.5954H22.1906V40.3594H2.51953C2.0563 40.3594 1.67969 39.9915 1.67969 39.5391V2.46094C1.67969 2.00848 2.0563 1.64062 2.51953 1.64062H4.19922C4.6631 1.64062 5.03906 1.27341 5.03906 0.820312C5.03906 0.367218 4.6631 0 4.19922 0H2.51953C1.13018 0 0 1.1039 0 2.46094V39.5391C0 40.8961 1.13018 42 2.51953 42H23.0304C23.4943 42 23.8703 41.6328 23.8703 41.1797V25.7751C23.8703 25.322 23.4943 24.9548 23.0304 24.9548H18.5566V20.2838H23.0304C23.4943 20.2838 23.8703 19.9166 23.8703 19.4635V13.9828C23.8703 10.5888 26.6972 7.82726 30.1724 7.82726H34.9864V12.4979H30.1724C29.3483 12.4979 28.6521 13.1779 28.6521 13.9828V19.4635C28.6521 19.9166 29.0281 20.2838 29.492 20.2838H34.8686L34.2394 24.9548H29.492C29.0284 24.9548 28.6521 25.322 28.6521 25.7751V41.1797C28.6521 41.6328 29.0284 42 29.492 42H32.082C32.5459 42 32.9219 41.6328 32.9219 41.1797C32.9219 40.7266 32.5459 40.3594 32.082 40.3594H30.3318V26.5954H34.9759C35.3974 26.5954 35.7537 26.2901 35.8085 25.8821L36.6589 19.5705C36.6903 19.3366 36.6172 19.1005 36.4577 18.9229C36.2983 18.7451 36.068 18.6435 35.8262 18.6435H30.3321V14.1389H35.8262C36.2901 14.1389 36.6661 13.7716 36.6661 13.3185V7.00726C36.6657 6.55417 36.2898 6.18695 35.8259 6.18695Z" fill="black"/>
<path d="M40.4805 0H10.918C10.4541 0 10.0781 0.367218 10.0781 0.820312C10.0781 1.27341 10.4541 1.64062 10.918 1.64062H40.4805C40.9437 1.64062 41.3203 2.00848 41.3203 2.46094V39.5391C41.3203 39.9915 40.9437 40.3594 40.4805 40.3594H38.8008C38.3369 40.3594 37.9609 40.7266 37.9609 41.1797C37.9609 41.6328 38.3369 42 38.8008 42H40.4805C41.8698 42 43 40.8961 43 39.5391V2.46094C43 1.1039 41.8698 0 40.4805 0Z" fill="black"/>
<path d="M35.4417 40.3594H35.4411C34.9772 40.3594 34.6016 40.7266 34.6016 41.1797C34.6016 41.6328 34.9779 42 35.4417 42C35.9056 42 36.2816 41.6328 36.2816 41.1797C36.2816 40.7266 35.9056 40.3594 35.4417 40.3594Z" fill="black"/>
<path d="M7.55892 1.64062C8.0228 1.64062 8.39877 1.27341 8.39877 0.820312C8.39877 0.367218 8.0228 0 7.55892 0H7.55827C7.09438 0 6.71875 0.367218 6.71875 0.820312C6.71875 1.27341 7.09504 1.64062 7.55892 1.64062Z" fill="black"/>
</svg>
