<svg width="23" height="19" viewBox="0 0 23 19" fill="none" xmlns="http://www.w3.org/2000/svg">
<path d="M0.898438 11.0947C0.402231 11.0947 0 10.6925 0 10.1963V4.31152C0 2.32993 1.61216 0.717773 3.59375 0.717773H19.4062C21.3878 0.717773 23 2.32993 23 4.31152V14.6885C23 16.6701 21.3878 18.2822 19.4062 18.2822H3.59375C1.61216 18.2822 0 16.6701 0 14.6885C0 14.1923 0.402231 13.79 0.898438 13.79C1.39464 13.79 1.79688 14.1923 1.79688 14.6885C1.79688 15.6793 2.60295 16.4854 3.59375 16.4854H19.4062C20.397 16.4854 21.2031 15.6793 21.2031 14.6885V4.5019L13.3977 9.35549C12.8124 9.7194 12.1562 9.90138 11.5 9.90138C10.8438 9.90138 10.1876 9.7194 9.60228 9.35549L1.79688 4.5019V10.1963C1.79688 10.6925 1.39464 11.0947 0.898438 11.0947ZM10.5512 7.82954C11.1364 8.19345 11.8636 8.19349 12.4488 7.82954L20.4534 2.8521C20.1584 2.6398 19.7967 2.51465 19.4062 2.51465H3.59375C3.20333 2.51465 2.84162 2.63985 2.54658 2.85215L10.5512 7.82954Z" fill="black"/>
</svg>
