<svg width="88" height="96" viewBox="0 0 88 96" fill="none" xmlns="http://www.w3.org/2000/svg">
<path fill-rule="evenodd" clip-rule="evenodd" d="M86.5023 1.77056C87.1865 2.87156 87.2536 4.248 86.6795 5.41031L68.1609 42.9103C68.099 43.0354 68.0313 43.1556 67.9578 43.2707C72.8071 48.8644 75.7453 56.1581 75.7453 64.125C75.7453 68.316 74.9435 72.3915 73.362 76.2383C72.5746 78.1537 70.3831 79.0684 68.4676 78.2809C66.5521 77.4934 65.6377 75.3021 66.425 73.3866C67.6327 70.449 68.2451 67.3329 68.2451 64.1248C68.2451 50.6844 57.3106 39.7498 43.8701 39.7498C30.4295 39.7498 19.4951 50.6844 19.4951 64.1248C19.4951 77.5652 30.4295 88.4998 43.8701 88.4998C48.3547 88.4998 52.7366 87.2728 56.5423 84.9516C58.3102 83.8729 60.6178 84.432 61.6965 86.2003C62.775 87.9684 62.216 90.276 60.4479 91.3545C55.4656 94.3937 49.7332 96 43.8705 96C26.2946 96 11.9955 81.7009 11.9955 64.125C11.9955 56.0743 14.9956 48.7112 19.9366 43.0948C19.9027 43.0346 19.8701 42.9731 19.8391 42.9103L1.32052 5.41031C0.746393 4.248 0.813518 2.87156 1.49771 1.77056C2.18208 0.669562 3.38658 0 4.68296 0H28.9423C30.3693 0 31.6728 0.81 32.3047 2.08969L39.3579 16.3725C40.275 18.2295 39.513 20.4782 37.656 21.3953C35.7988 22.3121 33.5503 21.5503 32.6332 19.6933L26.6118 7.5H10.7171L25.74 37.9213C30.0783 34.9102 35.1969 32.9481 40.7253 32.4041L55.6955 2.08969C56.3274 0.81 57.6307 0 59.058 0H83.3173C84.6136 0 85.8181 0.669562 86.5023 1.77056ZM48.9652 32.6569C53.828 33.4414 58.3261 35.3299 62.1935 38.0561L77.283 7.5H61.3884L48.9652 32.6569ZM47.808 73.875C47.808 75.9461 46.1291 77.625 44.058 77.625C41.9868 77.625 40.308 75.9461 40.308 73.875V58.5H37.4955C35.4243 58.5 33.7455 56.8211 33.7455 54.75C33.7455 52.6789 35.4243 51 37.4955 51H44.058C46.1291 51 47.808 52.6789 47.808 54.75V73.875Z" fill="url(#paint0_linear)" fill-opacity="0.7"/>
<defs>
<linearGradient id="paint0_linear" x1="58.0192" y1="82.432" x2="23.0041" y2="7.86748" gradientUnits="userSpaceOnUse">
<stop stop-color="#2EC8EA"/>
<stop offset="0.568653" stop-color="#44FFDD"/>
<stop offset="1" stop-color="#8044FF"/>
</linearGradient>
</defs>
</svg>
