<svg width="23" height="23" viewBox="0 0 23 23" fill="none" xmlns="http://www.w3.org/2000/svg">
<path d="M11.5 3.59375C8.40376 3.59375 5.88477 6.11274 5.88477 9.20898C5.88477 12.3052 8.40376 14.8242 11.5 14.8242C12.0229 14.8242 12.5411 14.7522 13.04 14.6102C13.5173 14.4744 13.794 13.9774 13.6582 13.5001C13.5223 13.0229 13.0254 12.7461 12.5481 12.882C12.2092 12.9784 11.8565 13.0273 11.5 13.0273C9.39456 13.0273 7.68164 11.3144 7.68164 9.20898C7.68164 7.10354 9.39456 5.39062 11.5 5.39062C13.6054 5.39062 15.3184 7.10354 15.3184 9.20898C15.3184 9.58359 15.2645 9.95334 15.1581 10.3079C15.0156 10.7832 15.2853 11.284 15.7606 11.4266C16.2359 11.569 16.7367 11.2994 16.8793 10.8241C17.0358 10.3019 17.1152 9.75856 17.1152 9.20898C17.1152 6.11274 14.5962 3.59375 11.5 3.59375Z" fill="black"/>
<path d="M18.0082 2.6937C16.2692 0.956656 13.9579 0 11.5 0C9.04206 0 6.73078 0.956656 4.99185 2.69374C3.25311 4.43069 2.29398 6.74066 2.29115 9.20013C2.2929 10.9905 2.79019 12.6702 3.81135 14.3354C4.69564 15.7772 5.84443 17.0353 7.06064 18.3673C8.25318 19.6732 9.48624 21.0236 10.471 22.5816C10.6357 22.8421 10.9224 23 11.2305 23H11.7695C12.0777 23 12.3643 22.8421 12.529 22.5816C13.5138 21.0236 14.7468 19.6731 15.9394 18.3672C17.1556 17.0353 18.3044 15.7772 19.1887 14.3353C20.2099 12.6702 20.7071 10.9904 20.7089 9.19816C20.7061 6.74062 19.7469 4.43064 18.0082 2.6937ZM14.6125 17.1556C13.5521 18.3168 12.4611 19.5116 11.5 20.8858C10.5389 19.5116 9.44788 18.3168 8.38754 17.1556C6.0822 14.631 4.09117 12.4505 4.08802 9.20027C4.0927 5.11804 7.41773 1.79688 11.5 1.79688C15.5823 1.79688 18.9073 5.11804 18.912 9.19834C18.9088 12.4505 16.9178 14.6309 14.6125 17.1556Z" fill="black"/>
</svg>
