<svg width="23" height="23" viewBox="0 0 23 23" fill="none" xmlns="http://www.w3.org/2000/svg">
<g clip-path="url(#clip0)">
<path d="M22.9979 18.5331C22.9658 17.6434 22.5952 16.8132 21.9544 16.1953C20.6996 14.9854 19.6484 14.2869 18.646 13.9973C17.2649 13.5981 15.9855 13.9611 14.8438 15.0761C14.8421 15.0778 14.8403 15.0795 14.8386 15.0812L13.624 16.2868C12.8648 15.8589 11.3887 14.9193 9.79387 13.3245L9.67563 13.2063C8.08054 11.6113 7.141 10.1349 6.71348 9.37661L7.91918 8.16187C7.92089 8.16017 7.9226 8.15846 7.9243 8.15671C9.03931 7.01506 9.40228 5.73578 9.00315 4.35448C8.71345 3.35213 8.01505 2.30087 6.80512 1.04616C6.18726 0.405437 5.35706 0.0348309 4.46739 0.00275667C3.57717 -0.0293625 2.72293 0.280509 2.06043 0.875185L2.03464 0.898364C2.02269 0.909101 2.01101 0.920197 1.9996 0.931562C0.680739 2.25042 -0.0106094 4.09676 0.000216776 6.27102C0.0186797 9.96459 2.04866 14.1885 5.43033 17.5701C6.068 18.2078 6.79272 18.8389 7.58434 19.4459C7.97808 19.7477 8.54203 19.6733 8.84395 19.2796C9.14591 18.8858 9.07143 18.3218 8.67765 18.0199C7.94834 17.4607 7.28327 16.8819 6.7009 16.2997C3.64639 13.2451 1.81317 9.49282 1.79705 6.26208C1.78874 4.58757 2.29245 3.18992 3.25391 2.21844L3.26078 2.21224C3.91381 1.62605 4.9025 1.66172 5.51173 2.29346C7.83774 4.70567 7.66933 5.84449 6.64152 6.89845L4.97608 8.57637C4.7149 8.83952 4.64218 9.23609 4.79298 9.5748C4.83525 9.66977 5.85808 11.9299 8.40537 14.4772L8.52365 14.5953C11.0706 17.1423 13.3308 18.1651 13.4258 18.2074C13.7644 18.3583 14.1611 18.2855 14.4242 18.0243L16.1022 16.3589C17.1562 15.331 18.2951 15.1627 20.7071 17.4887C21.3389 18.0978 21.3746 19.0866 20.7885 19.7395L20.7821 19.7466C19.8186 20.7002 18.4358 21.2035 16.7795 21.2035C16.7659 21.2035 16.7522 21.2035 16.7385 21.2034C15.4146 21.1968 13.8816 20.8339 12.3052 20.154C11.8497 19.9574 11.3209 20.1674 11.1245 20.6231C10.9279 21.0787 11.1379 21.6074 11.5936 21.8039C13.4157 22.5898 15.1437 22.9923 16.7296 23.0003C16.7464 23.0003 16.7631 23.0004 16.78 23.0004C18.9324 23.0004 20.7604 22.3095 22.069 21.0009C22.0804 20.9895 22.0915 20.9779 22.1022 20.9659L22.1255 20.94C22.7201 20.2775 23.03 19.4227 22.9979 18.5331Z" fill="#2EC8EA"/>
</g>
<defs>
<clipPath id="clip0">
<rect width="23" height="23" fill="white"/>
</clipPath>
</defs>
</svg>
