<svg width="23" height="23" viewBox="0 0 23 23" fill="none" xmlns="http://www.w3.org/2000/svg">
<path d="M19.1627 3.38809H16.1385C13.7845 3.38809 11.8694 5.30324 11.8694 7.65725V10.2095H9.47623C9.22829 10.2095 9.02702 10.4106 9.02702 10.6588V14.1149C9.02702 14.3631 9.22829 14.5642 9.47623 14.5642H11.8694V22.1016H1.34766C1.09988 22.1016 0.898438 21.9001 0.898438 21.6523V1.34766C0.898438 1.09988 1.09988 0.898438 1.34766 0.898438H2.24609C2.49422 0.898438 2.69531 0.697342 2.69531 0.449219C2.69531 0.201096 2.49422 0 2.24609 0H1.34766C0.604515 0 0 0.604515 0 1.34766V21.6523C0 22.3955 0.604515 23 1.34766 23H12.3186C12.5667 23 12.7678 22.7989 12.7678 22.5508V14.1149C12.7678 13.8668 12.5667 13.6657 12.3186 13.6657H9.92563V11.1078H12.3186C12.5667 11.1078 12.7678 10.9067 12.7678 10.6586V7.65725C12.7678 5.79861 14.2799 4.28635 16.1387 4.28635H18.7136V6.84409H16.1387C15.6979 6.84409 15.3256 7.21645 15.3256 7.65725V10.6586C15.3256 10.9067 15.5266 11.1078 15.7748 11.1078H18.6507L18.3141 13.6657H15.7748C15.5268 13.6657 15.3256 13.8668 15.3256 14.1149V22.5508C15.3256 22.7989 15.5268 23 15.7748 23H17.1602C17.4083 23 17.6094 22.7989 17.6094 22.5508C17.6094 22.3027 17.4083 22.1016 17.1602 22.1016H16.224V14.5642H18.708C18.9335 14.5642 19.1241 14.3969 19.1534 14.1736L19.6082 10.7172C19.6251 10.5891 19.5859 10.4598 19.5007 10.3626C19.4154 10.2652 19.2922 10.2095 19.1629 10.2095H16.2242V7.74271H19.1629C19.411 7.74271 19.6121 7.54161 19.6121 7.29349V3.83731C19.6119 3.58919 19.4108 3.38809 19.1627 3.38809Z" fill="#2EC8EA"/>
<path d="M21.6523 0H5.83984C5.59172 0 5.39062 0.201096 5.39062 0.449219C5.39062 0.697342 5.59172 0.898438 5.83984 0.898438H21.6523C21.9001 0.898438 22.1016 1.09988 22.1016 1.34766V21.6523C22.1016 21.9001 21.9001 22.1016 21.6523 22.1016H20.7539C20.5058 22.1016 20.3047 22.3027 20.3047 22.5508C20.3047 22.7989 20.5058 23 20.7539 23H21.6523C22.3955 23 23 22.3955 23 21.6523V1.34766C23 0.604515 22.3955 0 21.6523 0Z" fill="#2EC8EA"/>
<path d="M18.9572 22.1016H18.9569C18.7087 22.1016 18.5078 22.3027 18.5078 22.5508C18.5078 22.7989 18.7091 23 18.9572 23C19.2053 23 19.4064 22.7989 19.4064 22.5508C19.4064 22.3027 19.2053 22.1016 18.9572 22.1016Z" fill="#2EC8EA"/>
<path d="M4.04314 0.898438C4.29127 0.898438 4.49236 0.697342 4.49236 0.449219C4.49236 0.201096 4.29127 0 4.04314 0H4.04279C3.79467 0 3.59375 0.201096 3.59375 0.449219C3.59375 0.697342 3.79502 0.898438 4.04314 0.898438Z" fill="#2EC8EA"/>
</svg>
