<svg width="96" height="96" viewBox="0 0 96 96" fill="none" xmlns="http://www.w3.org/2000/svg">
<path d="M92.25 65.7534C94.3211 65.7534 96 64.0713 96 61.9961V39.0763C96 30.7891 89.271 24.047 81 24.047H72.5983C73.6208 20.15 74.25 16.4814 74.25 14.2779C74.25 6.40495 67.8574 0 60 0C52.1426 0 45.75 6.40495 45.75 14.2779C45.75 16.4814 46.3794 20.1502 47.4017 24.047H39C30.729 24.047 24 30.7891 24 39.0763V45.0522C20.1107 44.0277 16.4492 43.3973 14.25 43.3973C6.39263 43.3973 0 49.8022 0 57.6751C0 65.5481 6.39263 71.953 14.25 71.953C16.3254 71.953 19.9667 71.4894 24 70.4713V80.9706C24 89.2578 30.729 96 39 96H49.875C51.6681 96 53.3108 95.1741 54.3818 93.7338C55.4398 92.311 55.7691 90.4453 55.2621 88.7427C53.7962 83.8212 53.25 79.9808 53.25 78.7162C53.25 74.9869 56.2779 71.953 60 71.953C63.7221 71.953 66.75 74.9869 66.75 78.7162C66.75 79.9808 66.2038 83.8212 64.7379 88.7429C64.2309 90.4452 64.56 92.311 65.6182 93.7338C66.6892 95.1741 68.3319 96 70.125 96H81C89.271 96 96 89.2578 96 80.9706C96 78.8955 94.3211 77.2133 92.25 77.2133C90.1789 77.2133 88.5 78.8955 88.5 80.9706C88.5 85.1142 85.1355 88.4853 81 88.4853H72.5983C73.6208 84.5884 74.25 80.9197 74.25 78.7162C74.25 70.8433 67.8574 64.4384 60 64.4384C52.1426 64.4384 45.75 70.8433 45.75 78.7162C45.75 80.9197 46.3794 84.5886 47.4017 88.4853H39C34.8645 88.4853 31.5 85.1142 31.5 80.9706V68.0069C31.5 66.2103 30.6758 64.5642 29.238 63.4911C27.8181 62.4308 25.956 62.1009 24.2571 62.6093C19.7687 63.9512 15.8134 64.4384 14.25 64.4384C10.5279 64.4384 7.5 61.4045 7.5 57.6751C7.5 53.9458 10.5279 50.9119 14.25 50.9119C15.5119 50.9119 19.3447 51.4594 24.2572 52.9281C25.9554 53.4359 27.8181 53.1064 29.2382 52.0461C30.6757 50.973 31.5 49.3269 31.5 47.5303V39.0763C31.5 34.9327 34.8645 31.5616 39 31.5616H49.875C51.6681 31.5616 53.3108 30.7358 54.3818 29.2954C55.4398 27.8727 55.7691 26.007 55.2621 24.3043C53.7962 19.3828 53.25 15.5424 53.25 14.2779C53.25 10.5485 56.2779 7.51468 60 7.51468C63.7221 7.51468 66.75 10.5485 66.75 14.2779C66.75 15.5424 66.2038 19.3828 64.7379 24.3045C64.2309 26.0068 64.56 27.8727 65.6182 29.2954C66.6892 30.7358 68.3319 31.5616 70.125 31.5616H81C85.1355 31.5616 88.5 34.9327 88.5 39.0763V61.9961C88.5 64.0713 90.1789 65.7534 92.25 65.7534Z" fill="url(#paint0_linear)" fill-opacity="0.7"/>
<defs>
<linearGradient id="paint0_linear" x1="63.6249" y1="82.432" x2="31.0611" y2="5.1449" gradientUnits="userSpaceOnUse">
<stop stop-color="#2EC8EA"/>
<stop offset="0.568653" stop-color="#44FFDD"/>
<stop offset="1" stop-color="#8044FF"/>
</linearGradient>
</defs>
</svg>
