<svg width="43" height="42" viewBox="0 0 43 42" fill="none" xmlns="http://www.w3.org/2000/svg">
<path d="M30.4023 0H12.5977C5.65131 0 0 5.51988 0 12.3047V29.6953C0 36.4801 5.65131 42 12.5977 42H30.4023C37.3487 42 43 36.4801 43 29.6953V12.3047C43 5.51988 37.3487 0 30.4023 0ZM41.3203 29.6953C41.3203 35.5755 36.4225 40.3594 30.4023 40.3594H12.5977C6.57749 40.3594 1.67969 35.5755 1.67969 29.6953V12.3047C1.67969 6.42452 6.57749 1.64062 12.5977 1.64062H30.4023C36.4225 1.64062 41.3203 6.42452 41.3203 12.3047V29.6953Z" fill="black"/>
<path d="M30.4023 3.60938H12.5977C7.68885 3.60938 3.69531 7.51004 3.69531 12.3047V29.6953C3.69531 34.49 7.68885 38.3906 12.5977 38.3906H17.7207C18.1845 38.3906 18.5605 38.0234 18.5605 37.5703C18.5605 37.1173 18.1845 36.75 17.7207 36.75H12.5977C8.61512 36.75 5.375 33.5852 5.375 29.6953V12.3047C5.375 8.41477 8.61512 5.25 12.5977 5.25H30.4023C34.3849 5.25 37.625 8.41477 37.625 12.3047V29.6953C37.625 33.5852 34.3849 36.75 30.4023 36.75H25.3353C24.8715 36.75 24.4955 37.1173 24.4955 37.5703C24.4955 38.0234 24.8715 38.3906 25.3353 38.3906H30.4023C35.3111 38.3906 39.3047 34.49 39.3047 29.6953V12.3047C39.3047 7.51004 35.3111 3.60938 30.4023 3.60938Z" fill="black"/>
<path d="M22.0938 36.9904C21.9376 36.8378 21.7209 36.75 21.5 36.75C21.2791 36.75 21.0624 36.8378 20.9062 36.9904C20.75 37.1429 20.6602 37.3546 20.6602 37.5703C20.6602 37.7861 20.75 37.9977 20.9062 38.1503C21.0624 38.3029 21.2791 38.3906 21.5 38.3906C21.7209 38.3906 21.9376 38.3029 22.0938 38.1503C22.25 37.9977 22.3398 37.7861 22.3398 37.5703C22.3398 37.3546 22.25 37.1429 22.0938 36.9904Z" fill="black"/>
<path d="M14.767 12.7731C14.4498 12.4425 13.9184 12.4256 13.5799 12.7353L13.5427 12.7695C13.2053 13.0804 13.1898 13.5996 13.5082 13.9291C13.6734 14.1001 13.8961 14.1864 14.1192 14.1864C14.326 14.1864 14.5332 14.1123 14.6954 13.9627L14.7283 13.9326C15.0667 13.6229 15.0841 13.1037 14.767 12.7731Z" fill="black"/>
<path d="M21.5 9.67969C19.6554 9.67969 17.8195 10.1137 16.1908 10.9348C15.7786 11.1426 15.617 11.6374 15.8297 12.0401C16.0425 12.4426 16.5491 12.6004 16.9612 12.3927C18.3726 11.6811 19.8997 11.3203 21.5 11.3203C26.9644 11.3203 31.4102 15.6626 31.4102 21C31.4102 26.3374 26.9644 30.6797 21.5 30.6797C16.0356 30.6797 11.5898 26.3374 11.5898 21C11.5898 19.325 12.0345 17.6747 12.8759 16.2276C13.1049 15.8337 12.9637 15.333 12.5603 15.1092C12.1569 14.8856 11.6444 15.0234 11.4152 15.4174C10.4306 17.1111 9.91016 19.0415 9.91016 21C9.91016 27.242 15.1094 32.3203 21.5 32.3203C27.8906 32.3203 33.0898 27.242 33.0898 21C33.0898 14.758 27.8906 9.67969 21.5 9.67969Z" fill="black"/>
<path d="M21.5 13.6172C17.3322 13.6172 13.9414 16.9291 13.9414 21C13.9414 25.0709 17.3322 28.3828 21.5 28.3828C25.6678 28.3828 29.0586 25.0709 29.0586 21C29.0586 16.9291 25.6678 13.6172 21.5 13.6172ZM21.5 26.7422C18.2584 26.7422 15.6211 24.1662 15.6211 21C15.6211 17.8338 18.2584 15.2578 21.5 15.2578C24.7416 15.2578 27.3789 17.8338 27.3789 21C27.3789 24.1662 24.7416 26.7422 21.5 26.7422Z" fill="black"/>
<path d="M32.5229 7.11621C30.7632 7.11621 29.3315 8.5146 29.3315 10.2334C29.3315 11.9522 30.7632 13.3506 32.5229 13.3506C34.2827 13.3506 35.7144 11.9522 35.7144 10.2334C35.7144 8.5146 34.2827 7.11621 32.5229 7.11621ZM32.5229 11.71C31.6894 11.71 31.0112 11.0476 31.0112 10.2334C31.0112 9.41924 31.6894 8.75684 32.5229 8.75684C33.3565 8.75684 34.0347 9.41924 34.0347 10.2334C34.0347 11.0476 33.3565 11.71 32.5229 11.71Z" fill="black"/>
</svg>
